<svg version="1.0" xmlns="http://www.w3.org/2000/svg"
 width="380" height="316" viewBox="0 0 380.000000 316.000000"
 preserveAspectRatio="xMidYMid meet">
<g transform="translate(0.000000,316.000000) scale(0.100000,-0.100000)"
fill="white" stroke="none">
<path d="M873 3146 c-89 -28 -163 -95 -182 -163 -27 -98 -4 -198 62 -261 41
-39 78 -49 101 -27 21 21 14 43 -30 108 -27 39 -34 59 -34 97 0 87 55 139 156
148 80 7 96 -20 68 -115 -9 -31 10 -30 53 3 68 51 83 126 35 174 -48 48 -143
63 -229 36z"/>
<path d="M2770 3153 c-116 -42 -139 -122 -57 -200 17 -17 43 -36 56 -43 23
-12 24 -11 17 11 -31 106 -17 134 65 126 79 -7 117 -29 141 -84 27 -61 20
-106 -26 -173 -42 -61 -45 -86 -12 -101 48 -22 121 42 152 136 33 94 -1 210
-77 265 -77 55 -198 85 -259 63z"/>
<path d="M1732 3084 c-5 -10 -7 -34 -5 -54 l5 -37 -128 -5 c-100 -4 -139 -9
-174 -25 -132 -59 -161 -235 -54 -335 16 -15 81 -62 144 -105 131 -90 160
-125 160 -192 0 -53 -11 -72 -85 -151 -101 -108 -164 -226 -165 -306 0 -64 28
-137 76 -195 25 -31 44 -64 44 -78 0 -16 -19 -44 -54 -81 -30 -32 -58 -70 -62
-86 -9 -34 23 -166 57 -238 27 -58 70 -81 136 -73 33 3 49 0 67 -14 13 -11 31
-19 40 -19 22 0 44 38 55 93 11 62 25 77 71 77 22 0 48 8 63 20 14 11 37 20
51 20 22 0 26 -5 26 -27 0 -89 43 -139 97 -114 20 9 29 9 31 2 22 -66 107 -30
173 72 45 69 73 149 65 181 -3 13 -26 39 -52 59 -61 47 -91 90 -99 138 -6 35
-2 48 35 109 48 79 61 148 49 251 -8 65 -30 105 -70 127 -38 21 -142 8 -234
-28 -71 -29 -88 -32 -147 -27 -71 6 -99 16 -135 50 -48 43 -16 65 61 42 66
-20 185 -19 236 1 31 13 43 14 55 4 11 -9 27 -4 79 25 36 20 68 41 71 46 11
17 -28 59 -99 103 -51 32 -83 61 -110 100 -75 109 -134 150 -318 220 -119 46
-198 92 -218 129 -13 24 -13 30 0 54 23 41 87 81 162 100 62 16 69 16 83 2 14
-13 14 -20 4 -43 -17 -36 -7 -42 81 -50 37 -4 83 -16 103 -26 49 -27 63 -25
84 8 9 15 18 29 20 31 1 2 10 -2 18 -9 12 -10 21 -10 39 -2 32 14 39 5 19 -24
-8 -13 -11 -24 -7 -24 24 0 264 -30 294 -36 32 -7 34 -6 21 10 -23 27 -66 46
-165 71 -90 23 -91 23 -96 56 -5 33 -7 34 -58 40 -70 9 -228 86 -286 139 -39
36 -46 39 -54 24z"/>
<path d="M536 2888 c-8 -13 -19 -42 -24 -66 -18 -78 10 -128 103 -182 22 -13
59 -39 82 -57 24 -19 47 -31 53 -28 5 3 10 25 10 48 0 48 -20 85 -89 167 -26
30 -59 74 -74 98 -31 48 -41 51 -61 20z"/>
<path d="M3203 2873 c-12 -21 -51 -74 -88 -117 -36 -44 -68 -91 -71 -105 -3
-14 -8 -32 -10 -39 -6 -22 7 -62 21 -62 7 0 19 8 26 17 8 9 50 40 94 68 99 64
107 74 113 134 5 54 -26 141 -51 141 -7 0 -23 -17 -34 -37z"/>
<path d="M2840 2722 c-8 -3 -40 -22 -70 -42 -30 -21 -81 -54 -112 -74 -105
-68 -172 -167 -166 -244 2 -29 8 -38 29 -46 34 -12 70 -2 107 29 36 30 56 31
81 6 71 -71 28 -236 -72 -282 -51 -23 -123 -24 -165 -3 -27 13 -36 13 -59 2
-42 -20 -40 -44 6 -89 52 -48 75 -55 132 -34 24 9 77 26 117 38 91 27 121 52
227 184 83 103 86 107 80 147 -4 27 -1 54 9 78 34 80 15 160 -53 220 -31 28
-41 44 -41 67 0 32 -23 52 -50 43z"/>
<path d="M910 2694 c-6 -14 -10 -30 -10 -37 0 -6 -21 -33 -47 -59 -44 -45 -47
-51 -51 -111 -3 -42 1 -75 12 -100 10 -25 14 -53 10 -80 -5 -41 -3 -45 79
-142 47 -55 98 -112 113 -127 35 -32 265 -112 299 -104 12 3 41 26 64 51 35
38 40 49 30 61 -25 30 -47 35 -85 19 -73 -30 -166 -13 -212 39 -63 72 -78 176
-34 235 27 36 58 38 92 6 35 -34 99 -44 123 -20 23 23 21 61 -7 120 -36 77
-70 111 -200 196 -130 85 -161 94 -176 53z"/>
<path d="M464 2669 c-3 -6 -6 -33 -6 -59 0 -60 31 -129 75 -166 42 -35 125
-74 159 -74 32 0 53 30 44 65 -9 36 -95 132 -170 191 -70 55 -89 63 -102 43z"/>
<path d="M3225 2622 c-130 -108 -185 -194 -156 -241 14 -22 84 -7 148 31 89
53 137 150 118 237 -10 44 -30 39 -110 -27z"/>
<path d="M480 2340 c0 -26 64 -88 98 -95 15 -3 50 -12 78 -20 64 -19 88 -19
104 0 30 36 -34 95 -105 95 -22 0 -60 9 -84 20 -57 26 -91 26 -91 0z"/>
<path d="M3220 2340 c-25 -10 -63 -19 -84 -19 -69 -1 -129 -64 -94 -99 16 -16
41 -15 97 3 25 8 59 17 75 20 34 7 110 78 104 97 -7 20 -49 19 -98 -2z"/>
<path d="M638 2151 c-97 -6 -122 -10 -145 -27 -39 -29 -43 -77 -9 -99 43 -28
94 -28 199 0 117 30 153 47 162 76 15 48 -31 59 -207 50z"/>
<path d="M2985 2150 c-23 -4 -31 -11 -33 -31 -4 -36 21 -53 123 -84 144 -44
247 -36 261 21 16 61 -50 91 -211 96 -60 2 -123 1 -140 -2z"/>
<path d="M779 2000 c-37 -16 -98 -36 -135 -44 -54 -11 -75 -21 -96 -45 -16
-17 -28 -40 -28 -51 0 -44 98 -72 177 -51 49 13 173 94 221 144 48 49 41 71
-23 74 -38 2 -66 -4 -116 -27z"/>
<path d="M2846 2014 c-9 -25 15 -56 86 -109 127 -96 227 -125 303 -89 41 19
49 37 31 73 -21 41 -35 49 -112 66 -38 9 -101 29 -141 45 -82 34 -157 40 -167
14z"/>
<path d="M933 1899 c-27 -28 -97 -84 -158 -123 -121 -80 -159 -115 -153 -142
8 -43 110 -58 176 -27 53 25 229 198 242 238 16 48 -9 104 -47 105 -7 0 -34
-23 -60 -51z"/>
<path d="M2766 1928 c-40 -56 -10 -117 110 -227 104 -95 142 -114 216 -109
140 10 96 91 -117 214 -27 16 -75 55 -105 86 -59 63 -80 70 -104 36z"/>
<path d="M1138 1903 c-8 -10 -40 -71 -72 -136 -53 -111 -64 -125 -157 -216
-105 -102 -119 -130 -81 -164 73 -67 213 78 333 343 32 73 49 123 49 150 0 37
-2 40 -28 40 -16 0 -36 -8 -44 -17z"/>
<path d="M2585 1901 c-8 -28 2 -63 52 -176 79 -177 200 -336 265 -350 60 -14
96 20 77 73 -6 17 -49 66 -100 112 -85 78 -92 87 -154 215 -36 73 -72 136 -81
139 -29 11 -53 6 -59 -13z"/>
<path d="M1308 1873 c-27 -31 -40 -64 -69 -177 -18 -70 -48 -150 -81 -216 -61
-120 -68 -170 -29 -201 76 -61 181 46 216 220 24 119 40 337 27 366 -13 29
-42 33 -64 8z"/>
<path d="M2426 1874 c-9 -23 -7 -108 4 -225 20 -200 44 -271 115 -346 47 -49
87 -56 123 -23 36 34 29 86 -23 186 -47 89 -67 146 -105 291 -23 86 -54 133
-88 133 -11 0 -23 -7 -26 -16z"/>
<path d="M2156 1064 c-11 -30 -6 -61 14 -79 35 -32 26 -65 -35 -120 -33 -30
-57 -62 -61 -80 l-7 -30 41 38 c60 53 101 49 190 -19 l47 -35 50 56 c59 66 82
70 184 29 69 -28 167 -41 190 -26 24 17 2 50 -57 86 -97 59 -157 78 -272 85
l-105 7 -68 52 c-70 54 -100 64 -111 36z"/>
<path d="M1499 1011 c-66 -76 -98 -91 -186 -91 -38 0 -92 -7 -121 -15 -58 -18
-139 -78 -165 -124 l-18 -31 48 0 c27 0 85 13 133 30 116 41 133 39 191 -15
51 -48 66 -54 75 -31 16 41 197 71 254 42 18 -9 35 -14 37 -12 11 10 -31 68
-76 106 -43 37 -49 46 -54 93 -6 49 -31 97 -54 104 -6 2 -35 -23 -64 -56z"/>
<path d="M2264 409 c-83 -24 -137 -144 -114 -252 23 -108 95 -166 194 -155 96
11 150 85 150 208 1 65 -3 82 -28 123 -42 73 -116 101 -202 76z m103 -39 c74
-45 85 -248 18 -316 -35 -35 -93 -33 -127 3 -66 70 -63 251 4 308 36 30 62 31
105 5z"/>
<path d="M0 370 c0 -22 3 -40 6 -40 3 0 19 11 36 25 17 14 42 25 59 25 l29 0
0 -152 c0 -116 -4 -160 -15 -182 -8 -15 -15 -30 -15 -32 0 -2 27 -4 61 -4 l60
0 -15 22 c-13 18 -16 54 -16 185 l0 163 28 0 c17 0 38 -10 52 -25 35 -37 52
-33 48 13 l-3 37 -157 3 -158 3 0 -41z"/>
<path d="M360 403 c0 -5 7 -17 15 -27 22 -29 22 -318 0 -336 -27 -23 -16 -30
46 -30 l60 0 -15 22 c-11 16 -16 46 -16 105 l0 83 85 0 85 0 0 -83 c0 -59 -5
-89 -16 -105 l-15 -22 60 0 c65 0 69 3 46 34 -22 28 -22 304 0 332 23 31 19
34 -45 34 -61 0 -72 -8 -45 -30 10 -8 15 -31 15 -71 l0 -59 -85 0 -85 0 0 59
c0 40 5 63 15 71 27 22 16 30 -45 30 -33 0 -60 -3 -60 -7z"/>
<path d="M770 403 c0 -4 7 -17 15 -27 22 -29 22 -318 0 -336 -8 -7 -15 -16
-15 -21 0 -5 60 -9 134 -9 l133 0 6 37 c4 20 5 39 2 41 -2 2 -21 -10 -42 -27
-31 -26 -46 -31 -90 -31 l-53 0 0 95 0 95 43 0 c24 0 52 -7 63 -15 30 -22 34
-18 34 30 0 48 -10 55 -44 30 -11 -8 -37 -15 -58 -15 l-38 0 0 71 0 72 50 -5
c38 -4 58 -12 80 -33 25 -24 30 -26 35 -12 4 8 5 26 3 39 -3 23 -6 23 -130 26
-71 1 -128 -1 -128 -5z"/>
<path d="M1414 389 c24 -35 24 -334 -1 -361 -15 -17 -14 -18 45 -18 62 0 72 6
50 28 -8 8 -12 44 -13 94 l0 83 46 6 c118 17 171 90 115 156 -24 27 -27 28
-141 31 l-117 4 16 -23z m184 -27 c28 -36 7 -87 -43 -108 -19 -8 -39 -14 -45
-14 -6 0 -10 30 -10 75 l0 75 43 -6 c23 -4 48 -13 55 -22z"/>
<path d="M1744 388 c13 -18 16 -53 16 -178 0 -125 -3 -160 -16 -178 l-15 -22
60 0 c34 0 61 2 61 4 0 2 -7 17 -15 32 -9 18 -15 57 -15 102 l0 72 85 0 85 0
0 -87 c0 -66 -4 -91 -17 -105 -15 -17 -13 -18 52 -18 66 0 68 1 51 19 -15 16
-17 39 -14 182 2 90 7 172 12 182 7 15 2 17 -49 17 -51 0 -56 -2 -49 -17 4
-10 10 -46 12 -80 l4 -63 -86 0 -86 0 0 48 c0 26 7 60 15 76 8 15 15 30 15 32
0 2 -27 4 -61 4 l-60 0 15 -22z"/>
<path d="M2560 402 c0 -4 6 -14 13 -20 8 -9 13 -59 15 -157 3 -117 1 -150 -12
-176 -9 -18 -16 -34 -16 -36 0 -1 61 -3 135 -3 l135 0 0 41 0 41 -42 -31 c-33
-25 -52 -31 -90 -31 l-48 0 0 95 0 95 44 0 c26 0 48 -6 56 -15 22 -26 30 -16
30 36 l0 50 -26 -20 c-17 -13 -41 -21 -65 -21 l-39 0 0 70 0 70 39 0 c27 0 49
-8 76 -30 21 -16 39 -30 41 -30 2 0 4 18 4 40 l0 40 -125 0 c-69 0 -125 -4
-125 -8z"/>
<path d="M2896 393 c13 -27 17 -344 4 -357 -19 -19 -10 -26 36 -26 45 0 45 0
30 22 -13 18 -16 51 -16 158 l0 135 99 -99 c123 -122 130 -135 108 -181 l-17
-35 45 0 c46 0 54 7 33 28 -9 9 -13 58 -13 172 0 114 4 163 13 172 21 21 13
28 -33 28 l-46 0 16 -30 c10 -19 15 -57 15 -111 l0 -82 -106 112 c-96 100
-109 111 -141 111 -30 0 -34 -3 -27 -17z"/>
<path d="M3290 401 c0 -5 7 -14 15 -21 22 -19 22 -316 -1 -348 l-15 -22 60 0
c65 0 69 3 46 34 -12 15 -15 53 -15 166 0 113 3 151 15 166 23 31 19 34 -45
34 -33 0 -60 -4 -60 -9z"/>
<path d="M3482 383 c13 -16 40 -53 58 -83 18 -30 39 -64 46 -75 12 -19 9 -28
-32 -90 -25 -39 -60 -82 -77 -97 l-31 -28 55 0 c54 0 56 1 52 24 -5 26 53 139
67 131 22 -13 71 -116 65 -135 -6 -19 -2 -20 56 -20 l63 0 -26 28 c-39 41
-121 181 -115 196 12 31 98 156 107 156 5 0 10 5 10 10 0 6 -21 10 -46 10 -41
0 -45 -2 -39 -20 4 -13 -5 -39 -25 -75 -17 -30 -33 -55 -35 -55 -2 0 -17 25
-35 56 -19 35 -29 63 -25 75 6 17 1 19 -56 19 l-63 0 26 -27z"/>
</g>
</svg>